<svg width="917" height="1000" viewBox="0 0 917 1000" fill="none" xmlns="http://www.w3.org/2000/svg">
<path d="M25 472.958C25 341.521 89.0904 228.901 175.78 158.769C263.041 88.1743 369.048 63.4612 453.153 99.4432C496.945 118.178 518.221 138.762 531.303 159.446C542.018 176.389 547.712 193.562 554.647 214.474C556.927 221.351 559.341 228.633 562.113 236.443C572.919 266.901 587.966 300.295 621.059 333.238C653.788 365.819 702.636 396.468 778.743 424.879C845.922 449.958 878.221 491.405 887.813 537.681C897.721 585.476 884.365 643.194 849.883 700.508C780.851 815.252 633.56 917.459 463.5 917.459C287.944 917.459 180.377 871.158 115.887 796.215C50.7273 720.491 25 610.416 25 472.958Z" stroke="white" stroke-width="50"/>
<path d="M228.95 297H401.2C445.4 297 479.633 308.267 503.9 330.8C528.167 352.9 540.3 382.367 540.3 419.2C540.3 425.267 539.867 431.55 539 438.05C538.133 444.55 537.05 451.267 535.75 458.2L507.15 594.7C501.083 622.433 492.85 646.267 482.45 666.2C472.05 685.7 458.617 701.95 442.15 714.95C426.117 727.517 406.833 736.833 384.3 742.9C362.2 748.967 336.417 752 306.95 752H163.3V670.1H210.1L271.85 378.9H228.95V297ZM324.5 670.1C354.4 670.1 376.717 663.167 391.45 649.3C406.617 635 417.233 612.9 423.3 583L449.95 458.2C450.817 454.733 451.467 450.833 451.9 446.5C452.767 441.733 453.2 437.4 453.2 433.5C453.2 415.733 447.783 402.3 436.95 393.2C426.117 383.667 409.217 378.9 386.25 378.9H357.65L295.9 670.1H324.5Z" fill="white"/>
</svg>
