<svg width="1000" height="1000" viewBox="0 0 1000 1000" fill="none" xmlns="http://www.w3.org/2000/svg">
<g clip-path="url(#clip0)">
<path d="M67 472.958C67 341.521 131.09 228.901 217.78 158.769C305.041 88.1743 411.048 63.4612 495.153 99.4432C538.945 118.178 560.221 138.762 573.303 159.446C584.018 176.389 589.712 193.562 596.647 214.474C598.927 221.351 601.341 228.633 604.113 236.443C614.919 266.901 629.966 300.295 663.059 333.238C695.788 365.819 744.636 396.468 820.743 424.879C887.922 449.958 920.221 491.405 929.813 537.681C939.721 585.476 926.365 643.194 891.883 700.508C822.851 815.252 675.56 917.459 505.5 917.459C329.944 917.459 222.377 871.158 157.887 796.215C92.7273 720.491 67 610.416 67 472.958Z" fill="#0D2243"/>
<path d="M67 472.958C67 341.521 131.09 228.901 217.78 158.769C305.041 88.1743 411.048 63.4612 495.153 99.4432C538.945 118.178 560.221 138.762 573.303 159.446C584.018 176.389 589.712 193.562 596.647 214.474C598.927 221.351 601.341 228.633 604.113 236.443C614.919 266.901 629.966 300.295 663.059 333.238C695.788 365.819 744.636 396.468 820.743 424.879C887.922 449.958 920.221 491.405 929.813 537.681C939.721 585.476 926.365 643.194 891.883 700.508C822.851 815.252 675.56 917.459 505.5 917.459C329.944 917.459 222.377 871.158 157.887 796.215C92.7273 720.491 67 610.416 67 472.958Z" fill="url(#paint0_linear)"/>
<path d="M67 472.958C67 341.521 131.09 228.901 217.78 158.769C305.041 88.1743 411.048 63.4612 495.153 99.4432C538.945 118.178 560.221 138.762 573.303 159.446C584.018 176.389 589.712 193.562 596.647 214.474C598.927 221.351 601.341 228.633 604.113 236.443C614.919 266.901 629.966 300.295 663.059 333.238C695.788 365.819 744.636 396.468 820.743 424.879C887.922 449.958 920.221 491.405 929.813 537.681C939.721 585.476 926.365 643.194 891.883 700.508C822.851 815.252 675.56 917.459 505.5 917.459C329.944 917.459 222.377 871.158 157.887 796.215C92.7273 720.491 67 610.416 67 472.958Z" stroke="black" stroke-width="50"/>
<path d="M270.95 297H443.2C487.4 297 521.633 308.267 545.9 330.8C570.167 352.9 582.3 382.367 582.3 419.2C582.3 425.267 581.867 431.55 581 438.05C580.133 444.55 579.05 451.267 577.75 458.2L549.15 594.7C543.083 622.433 534.85 646.267 524.45 666.2C514.05 685.7 500.617 701.95 484.15 714.95C468.117 727.517 448.833 736.833 426.3 742.9C404.2 748.967 378.417 752 348.95 752H205.3V670.1H252.1L313.85 378.9H270.95V297ZM366.5 670.1C396.4 670.1 418.717 663.167 433.45 649.3C448.617 635 459.233 612.9 465.3 583L491.95 458.2C492.817 454.733 493.467 450.833 493.9 446.5C494.767 441.733 495.2 437.4 495.2 433.5C495.2 415.733 489.783 402.3 478.95 393.2C468.117 383.667 451.217 378.9 428.25 378.9H399.65L337.9 670.1H366.5Z" fill="black"/>
</g>
<defs>
<linearGradient id="paint0_linear" x1="500.003" y1="58" x2="500.003" y2="942.459" gradientUnits="userSpaceOnUse">
<stop offset="0.0572917" stop-color="#9D5B75"/>
<stop offset="0.890625" stop-color="#0D2243"/>
</linearGradient>
<clipPath id="clip0">
<rect width="1000" height="1000" fill="white"/>
</clipPath>
</defs>
</svg>
