<svg width="1000" height="1000" viewBox="0 0 1000 1000" fill="none" xmlns="http://www.w3.org/2000/svg">
<g clip-path="url(#clip0)">
<path d="M42 472.958C42.0001 193.458 314.486 -5.04164 504.986 76.4584C695.486 157.958 533.486 290.958 829.486 401.458C1125.49 511.958 865 942.459 505.5 942.459C146 942.459 41.9999 752.458 42 472.958Z" fill="#5217FF"/>
<path d="M42 472.958C42.0001 193.458 314.486 -5.04164 504.986 76.4584C695.486 157.958 533.486 290.958 829.486 401.458C1125.49 511.958 865 942.459 505.5 942.459C146 942.459 41.9999 752.458 42 472.958Z" fill="url(#paint0_linear)"/>
<path d="M270.95 297H443.2C487.4 297 521.633 308.267 545.9 330.8C570.167 352.9 582.3 382.367 582.3 419.2C582.3 425.267 581.867 431.55 581 438.05C580.133 444.55 579.05 451.267 577.75 458.2L549.15 594.7C543.083 622.433 534.85 646.267 524.45 666.2C514.05 685.7 500.617 701.95 484.15 714.95C468.117 727.517 448.833 736.833 426.3 742.9C404.2 748.967 378.417 752 348.95 752H205.3V670.1H252.1L313.85 378.9H270.95V297ZM366.5 670.1C396.4 670.1 418.717 663.167 433.45 649.3C448.617 635 459.233 612.9 465.3 583L491.95 458.2C492.817 454.733 493.467 450.833 493.9 446.5C494.767 441.733 495.2 437.4 495.2 433.5C495.2 415.733 489.783 402.3 478.95 393.2C468.117 383.667 451.217 378.9 428.25 378.9H399.65L337.9 670.1H366.5Z" fill="white"/>
</g>
<defs>
<linearGradient id="paint0_linear" x1="500.003" y1="58" x2="500.003" y2="942.459" gradientUnits="userSpaceOnUse">
<stop offset="0.0572917" stop-color="#FF6F00"/>
<stop offset="0.890625" stop-color="#5217FF"/>
</linearGradient>
<clipPath id="clip0">
<rect width="1000" height="1000" fill="white"/>
</clipPath>
</defs>
</svg>
